<svg xmlns="http://www.w3.org/2000/svg" version="1.1" xmlns:xlink="http://www.w3.org/1999/xlink" xmlns:svgjs="http://svgjs.dev/svgjs" viewBox="0 0 16.084190196987215 4.349961681362215"><g transform="matrix(0.7186684126842717,0,0,0.7186684126842717,2.8743861916933584,1.7215144069451456)"><rect width="17.78703618684967" height="17.78703618684967" x="-1.7028459898624524" y="-8.262536648112334" fill="#212245"></rect><g transform="matrix(1,0,0,1,0,0)" clip-path="url(#SvgjsClipPath13208)"><g clip-path="url(#a266570a9-4867-4f5f-890a-17ed9965991f246d560b-56ee-49ec-a767-629bfea73824)"><path d=" M 13.057787357151032 0.2678298145976765 C 13.07309844402771 0.26783346890419335 13.087783578463714 0.2617532532007415 13.098610797971986 0.2509273254151497 C 13.109438017480258 0.24010139762955807 13.115519985229486 0.22541698873095495 13.115518157694673 0.21010590152725594 L 13.115518157694673 0.05266515115418047 C 13.11551815801733 0.03735399209495449 13.109435823589731 0.022669936953713665 13.098609198559025 0.011843311466699036 C 13.087782573528317 0.0010166859796845173 13.073098518643429 -0.0050656490668031795 13.057787358367616 -0.005065649389461635 C 13.025903516415253 -0.005065649389461635 13.000056556607388 0.020781310418403698 13.000056556607388 0.05266515115418058 L 13.000056556607388 0.21010590152725594 C 13.000054729072584 0.2254169887309836 13.00613669682182 0.24010139762958382 13.016963916330097 0.25092732541516993 C 13.027791135838374 0.2617532532007564 13.042476270274381 0.267833468904201 13.05778735715106 0.2678298145976765 M 13.170356219485233 0.018165797787071947 L 13.170356219485233 0.26034313120577257 C 13.170356219485233 0.30371355008233136 13.126352153072286 0.35052770556970136 13.069874872654978 0.3564991448528483 L 13.069874872654978 0.756323852841273 C 13.309414303829797 0.7508345366836398 13.502332428767453 0.5831865509961192 13.502332428767453 0.37776077468799785 L 13.502332428767453 -0.16513052705997533 C 13.435386189053279 -0.19419566405522354 13.311384121171182 -0.22111190940532538 13.069874872654978 -0.2384270170844851 L 13.069874872654978 -0.09392094142161733 C 13.126352153072286 -0.08963693307776799 13.170356219485233 -0.054621019219037725 13.170356219485233 0.018165797787071947 M 12.95936536481404 0.018634145966142213 L 12.95936536481404 0.24413001924207256 C 12.95936536481404 0.2984859579071195 13.003431418485984 0.3425451241058406 13.057787357151032 0.3425451241058406 C 13.112143295816077 0.3425451241058406 13.156209349488021 0.2984859579071195 13.156209349488021 0.24413001924207256 L 13.156209349488021 0.018634145966142213 C 13.156209349488021 -0.03572179269890485 13.112143295816077 -0.07978095889762582 13.057787357151032 -0.07978095889762582 C 13.003431418485984 -0.07978095889762582 12.95936536481404 -0.03572179269890485 12.95936536481404 0.018634145966142324 M 13.057787357151032 -0.023558514989518886 C 13.097665827104226 -0.023558514989518886 13.129995626406524 0.008771284312778516 13.129995626406524 0.04865664173919604 L 13.129995626406524 0.21411441094224037 C 13.129995626406524 0.25399288089543637 13.097665827104226 0.2863295676709554 13.057787357151032 0.2863295676709554 C 13.017908887197835 0.2863295676709554 12.985572200422316 0.25399288089543637 12.985572200422316 0.21411441094224037 L 12.985572200422316 0.04865664173919604 C 12.985572200422316 0.008771284312778516 13.017908887197835 -0.023558514989518886 13.057787357151032 -0.023558514989518886 M 13.045699841647084 0.756323852841273 L 13.045699841647084 0.35649225737962675 C 12.989215673756554 0.3504588308374852 12.945218494816828 0.3026804290990879 12.945218494816828 0.24459836742114283 L 12.945218494816828 0.018165797787072058 C 12.945218494816828 -0.039916263890872994 12.989215673756554 -0.08768777815604867 13.045699841647084 -0.09372809217141187 L 13.045699841647084 -0.2384270170844851 C 12.80419059313088 -0.22111190940532538 12.680188525248782 -0.19419566405522354 12.613242285534609 -0.16513052705997533 L 12.613242285534609 0.37776077468799785 C 12.613242285534609 0.5831865509961192 12.806160410472264 0.7508345366836398 13.045699841647084 0.756323852841273 M 13.526507459775349 -0.1532427482794545 L 13.526507459775349 0.37776077468799785 C 13.526507459775349 0.5999713232372139 13.316239789792427 0.7807606078315907 13.057787357151032 0.7807606078315907 C 12.799334924509635 0.7807606078315907 12.589067254526713 0.5999713232372139 12.589067254526713 0.37776077468799785 L 12.589067254526713 -0.1532427482794545 C 12.53735610557877 -0.12426026096286591 12.532720836100617 -0.09417577793081755 12.517892106254463 -0.07006962165513764 C 12.485658731577269 -0.01769038780469634 12.41313363855358 0.34895736167517133 12.457454528734724 1.0177792238072958 C 12.501775418915866 1.6866079734126418 13.057787357151032 1.6543745987354475 13.057787357151032 1.6543745987354475 C 13.057787357151032 1.6543745987354475 13.613799295386196 1.6866079734126418 13.658120185567338 1.0177792238072958 C 13.702441075748482 0.34895736167517133 13.629915982724793 -0.01769038780469634 13.597682608047599 -0.07006962165513764 C 13.582853878201444 -0.09417577793081744 13.578218608723292 -0.1242602609628658 13.526507459775349 -0.1532427482794545 M 13.057787357151032 -0.686946160749783 C 12.331076282591166 -0.686946160749783 11.739841806300623 -0.09572545940568256 11.739841806300623 0.6309925026274033 C 11.739841806300623 1.3577035771872674 12.331076282591166 1.9489311660045894 13.057787357151032 1.9489311660045894 C 13.784505319184117 1.9489311660045894 14.375732908001439 1.3577035771872674 14.375732908001439 0.6309925026274033 C 14.375732908001439 -0.09572545940568256 13.784505319184117 -0.686946160749783 13.057787357151032 -0.686946160749783 M 13.057787357151032 1.868354616784824 C 12.375500484870633 1.868354616784824 11.82042524299361 1.3132724874345787 11.82042524299361 0.6309925026274033 C 11.82042524299361 -0.0366791514767103 12.35200731371168 -0.5824425295581004 13.01415521429205 -0.6055155648505366 L 13.01415521429205 -0.26245741115472704 L 13.10141950001001 -0.26245741115472704 L 13.10141950001001 -0.6055155648505366 C 13.763567400590382 -0.5824425295581004 14.295149471308452 -0.0366791514767103 14.295149471308452 0.6309925026274033 C 14.295149471308452 1.3132724874345787 13.740074229431428 1.868354616784824 13.05778735715103 1.868354616784824" fill="#64c6c4" transform="matrix(1,0,0,1,0,0)" fill-rule="nonzero"></path></g><g clip-path="url(#a266570a9-4867-4f5f-890a-17ed9965991f246d560b-56ee-49ec-a767-629bfea73824)"><path d=" M 13.057787357151032 0.2678298145976765 C 13.07309844402771 0.26783346890419335 13.087783578463714 0.2617532532007415 13.098610797971986 0.2509273254151497 C 13.109438017480258 0.24010139762955807 13.115519985229486 0.22541698873095495 13.115518157694673 0.21010590152725594 L 13.115518157694673 0.05266515115418047 C 13.11551815801733 0.03735399209495449 13.109435823589731 0.022669936953713665 13.098609198559025 0.011843311466699036 C 13.087782573528317 0.0010166859796845173 13.073098518643429 -0.0050656490668031795 13.057787358367616 -0.005065649389461635 C 13.025903516415253 -0.005065649389461635 13.000056556607388 0.020781310418403698 13.000056556607388 0.05266515115418058 L 13.000056556607388 0.21010590152725594 C 13.000054729072584 0.2254169887309836 13.00613669682182 0.24010139762958382 13.016963916330097 0.25092732541516993 C 13.027791135838374 0.2617532532007564 13.042476270274381 0.267833468904201 13.05778735715106 0.2678298145976765 Z M 13.170356219485233 0.018165797787071947 L 13.170356219485233 0.26034313120577257 C 13.170356219485233 0.30371355008233136 13.126352153072286 0.35052770556970136 13.069874872654978 0.3564991448528483 L 13.069874872654978 0.756323852841273 C 13.309414303829797 0.7508345366836398 13.502332428767453 0.5831865509961192 13.502332428767453 0.37776077468799785 L 13.502332428767453 -0.16513052705997533 C 13.435386189053279 -0.19419566405522354 13.311384121171182 -0.22111190940532538 13.069874872654978 -0.2384270170844851 L 13.069874872654978 -0.09392094142161733 C 13.126352153072286 -0.08963693307776799 13.170356219485233 -0.054621019219037725 13.170356219485233 0.018165797787071947 Z M 12.95936536481404 0.018634145966142213 L 12.95936536481404 0.24413001924207256 C 12.95936536481404 0.2984859579071195 13.003431418485984 0.3425451241058406 13.057787357151032 0.3425451241058406 C 13.112143295816077 0.3425451241058406 13.156209349488021 0.2984859579071195 13.156209349488021 0.24413001924207256 L 13.156209349488021 0.018634145966142213 C 13.156209349488021 -0.03572179269890485 13.112143295816077 -0.07978095889762582 13.057787357151032 -0.07978095889762582 C 13.003431418485984 -0.07978095889762582 12.95936536481404 -0.03572179269890485 12.95936536481404 0.018634145966142324 Z M 13.057787357151032 -0.023558514989518886 C 13.097665827104226 -0.023558514989518886 13.129995626406524 0.008771284312778516 13.129995626406524 0.04865664173919604 L 13.129995626406524 0.21411441094224037 C 13.129995626406524 0.25399288089543637 13.097665827104226 0.2863295676709554 13.057787357151032 0.2863295676709554 C 13.017908887197835 0.2863295676709554 12.985572200422316 0.25399288089543637 12.985572200422316 0.21411441094224037 L 12.985572200422316 0.04865664173919604 C 12.985572200422316 0.008771284312778516 13.017908887197835 -0.023558514989518886 13.057787357151032 -0.023558514989518886 Z M 13.045699841647084 0.756323852841273 L 13.045699841647084 0.35649225737962675 C 12.989215673756554 0.3504588308374852 12.945218494816828 0.3026804290990879 12.945218494816828 0.24459836742114283 L 12.945218494816828 0.018165797787072058 C 12.945218494816828 -0.039916263890872994 12.989215673756554 -0.08768777815604867 13.045699841647084 -0.09372809217141187 L 13.045699841647084 -0.2384270170844851 C 12.80419059313088 -0.22111190940532538 12.680188525248782 -0.19419566405522354 12.613242285534609 -0.16513052705997533 L 12.613242285534609 0.37776077468799785 C 12.613242285534609 0.5831865509961192 12.806160410472264 0.7508345366836398 13.045699841647084 0.756323852841273 Z M 13.526507459775349 -0.1532427482794545 L 13.526507459775349 0.37776077468799785 C 13.526507459775349 0.5999713232372139 13.316239789792427 0.7807606078315907 13.057787357151032 0.7807606078315907 C 12.799334924509635 0.7807606078315907 12.589067254526713 0.5999713232372139 12.589067254526713 0.37776077468799785 L 12.589067254526713 -0.1532427482794545 C 12.53735610557877 -0.12426026096286591 12.532720836100617 -0.09417577793081755 12.517892106254463 -0.07006962165513764 C 12.485658731577269 -0.01769038780469634 12.41313363855358 0.34895736167517133 12.457454528734724 1.0177792238072958 C 12.501775418915866 1.6866079734126418 13.057787357151032 1.6543745987354475 13.057787357151032 1.6543745987354475 C 13.057787357151032 1.6543745987354475 13.613799295386196 1.6866079734126418 13.658120185567338 1.0177792238072958 C 13.702441075748482 0.34895736167517133 13.629915982724793 -0.01769038780469634 13.597682608047599 -0.07006962165513764 C 13.582853878201444 -0.09417577793081744 13.578218608723292 -0.1242602609628658 13.526507459775349 -0.1532427482794545 Z M 13.057787357151032 -0.686946160749783 C 12.331076282591166 -0.686946160749783 11.739841806300623 -0.09572545940568256 11.739841806300623 0.6309925026274033 C 11.739841806300623 1.3577035771872674 12.331076282591166 1.9489311660045894 13.057787357151032 1.9489311660045894 C 13.784505319184117 1.9489311660045894 14.375732908001439 1.3577035771872674 14.375732908001439 0.6309925026274033 C 14.375732908001439 -0.09572545940568256 13.784505319184117 -0.686946160749783 13.057787357151032 -0.686946160749783 Z M 13.057787357151032 1.868354616784824 C 12.375500484870633 1.868354616784824 11.82042524299361 1.3132724874345787 11.82042524299361 0.6309925026274033 C 11.82042524299361 -0.0366791514767103 12.35200731371168 -0.5824425295581004 13.01415521429205 -0.6055155648505366 L 13.01415521429205 -0.26245741115472704 L 13.10141950001001 -0.26245741115472704 L 13.10141950001001 -0.6055155648505366 C 13.763567400590382 -0.5824425295581004 14.295149471308452 -0.0366791514767103 14.295149471308452 0.6309925026274033 C 14.295149471308452 1.3132724874345787 13.740074229431428 1.868354616784824 13.05778735715103 1.868354616784824 Z" fill="none" transform="matrix(1,0,0,1,0,0)" fill-rule="nonzero" stroke-dasharray="none" stroke-miterlimit="4" stroke-linejoin="miter" stroke-linecap="butt" stroke-width="0.011226581351245149" stroke="#a4cb6a"></path></g></g><g><path d=" M 0.22265625 0.160400390625 L 0.021240234375 0.160400390625 L 0.021240234375 0.010986328125 L 0.613037109375 0.010986328125 L 0.613037109375 0.160400390625 L 0.412353515625 0.160400390625 L 0.412353515625 1.261962890625 L 0.22265625 1.261962890625 L 0.22265625 0.160400390625 M 0.7412109375 0.010986328125 L 1.204833984375 0.010986328125 L 1.204833984375 0.160400390625 L 0.930908203125 0.160400390625 L 0.930908203125 0.53466796875 L 1.142578125 0.53466796875 L 1.142578125 0.68408203125 L 0.930908203125 0.68408203125 L 0.930908203125 1.112548828125 L 1.212158203125 1.112548828125 L 1.212158203125 1.261962890625 L 0.7412109375 1.261962890625 L 0.7412109375 0.010986328125 M 1.61865234375 1.27294921875 Q 1.58935546875 1.27294921875 1.5552978515625 1.2681884765625 Q 1.521240234375 1.263427734375 1.4871826171875 1.248046875 Q 1.453125 1.232666015625 1.4219970703125 1.2044677734375 Q 1.390869140625 1.17626953125 1.3670654296875 1.130126953125 Q 1.34326171875 1.083984375 1.3289794921875 1.0162353515625 Q 1.314697265625 0.948486328125 1.314697265625 0.854736328125 L 1.314697265625 0.41162109375 Q 1.314697265625 0.317138671875 1.329345703125 0.2501220703125 Q 1.343994140625 0.18310546875 1.3681640625 0.1373291015625 Q 1.392333984375 0.091552734375 1.423828125 0.064453125 Q 1.455322265625 0.037353515625 1.489013671875 0.0230712890625 Q 1.522705078125 0.0087890625 1.5560302734375 0.00439453125 Q 1.58935546875 0 1.617919921875 0 Q 1.692626953125 0 1.7427978515625 0.0208740234375 Q 1.79296875 0.041748046875 1.8233642578125 0.0780029296875 Q 1.853759765625 0.1142578125 1.8665771484375 0.16259765625 Q 1.87939453125 0.2109375 1.87939453125 0.26513671875 Q 1.87939453125 0.305419921875 1.8753662109375 0.3394775390625 Q 1.871337890625 0.37353515625 1.86328125 0.41455078125 L 1.70947265625 0.41455078125 L 1.70947265625 0.350830078125 Q 1.70947265625 0.24755859375 1.686767578125 0.1962890625 Q 1.6640625 0.14501953125 1.6201171875 0.14501953125 Q 1.59375 0.14501953125 1.573974609375 0.1552734375 Q 1.55419921875 0.16552734375 1.541015625 0.1900634765625 Q 1.52783203125 0.214599609375 1.5208740234375 0.2548828125 Q 1.513916015625 0.295166015625 1.513916015625 0.355224609375 L 1.513916015625 0.926513671875 Q 1.513916015625 0.985107421875 1.5194091796875 1.02392578125 Q 1.52490234375 1.062744140625 1.537353515625 1.086181640625 Q 1.5498046875 1.109619140625 1.5699462890625 1.1195068359375 Q 1.590087890625 1.12939453125 1.61865234375 1.12939453125 Q 1.636962890625 1.12939453125 1.65380859375 1.1209716796875 Q 1.670654296875 1.112548828125 1.6834716796875 1.0946044921875 Q 1.6962890625 1.07666015625 1.7039794921875 1.0491943359375 Q 1.711669921875 1.021728515625 1.711669921875 0.984375 L 1.711669921875 0.862060546875 L 1.88525390625 0.862060546875 L 1.88525390625 0.977783203125 Q 1.88525390625 1.128662109375 1.81640625 1.200439453125 Q 1.74755859375 1.272216796875 1.61865234375 1.27294921875 M 2.94287109375 1.387939453125 L 2.94287109375 1.50732421875 L 1.924072265625 1.50732421875 L 1.924072265625 1.387939453125 L 2.94287109375 1.387939453125 M 2.997802734375 1.008544921875 Q 2.997802734375 0.96826171875 3.0025634765625 0.9342041015625 Q 3.00732421875 0.900146484375 3.016845703125 0.860595703125 L 3.1640625 0.860595703125 L 3.1640625 0.92138671875 Q 3.1640625 0.971923828125 3.1702880859375 1.0107421875 Q 3.176513671875 1.049560546875 3.1907958984375 1.0762939453125 Q 3.205078125 1.10302734375 3.2288818359375 1.1165771484375 Q 3.252685546875 1.130126953125 3.287109375 1.130126953125 Q 3.34130859375 1.130126953125 3.369873046875 1.1004638671875 Q 3.3984375 1.07080078125 3.3984375 1.013671875 Q 3.3984375 0.984375 3.3944091796875 0.9598388671875 Q 3.390380859375 0.935302734375 3.3804931640625 0.9111328125 Q 3.37060546875 0.886962890625 3.353759765625 0.8602294921875 Q 3.3369140625 0.83349609375 3.310546875 0.800537109375 L 3.11279296875 0.5654296875 Q 3.06005859375 0.498046875 3.031494140625 0.4295654296875 Q 3.0029296875 0.361083984375 3.0029296875 0.283447265625 Q 3.0029296875 0.22119140625 3.0223388671875 0.169189453125 Q 3.041748046875 0.1171875 3.078369140625 0.0794677734375 Q 3.114990234375 0.041748046875 3.1688232421875 0.0208740234375 Q 3.22265625 0 3.290771484375 0 Q 3.37353515625 0 3.4288330078125 0.0234375 Q 3.484130859375 0.046875 3.51708984375 0.0849609375 Q 3.550048828125 0.123046875 3.5635986328125 0.1702880859375 Q 3.5771484375 0.217529296875 3.5771484375 0.26513671875 Q 3.5771484375 0.305419921875 3.5709228515625 0.3394775390625 Q 3.564697265625 0.37353515625 3.556640625 0.41455078125 L 3.41015625 0.41455078125 L 3.41015625 0.355224609375 Q 3.41015625 0.255615234375 3.381591796875 0.2025146484375 Q 3.35302734375 0.1494140625 3.28857421875 0.1494140625 Q 3.235107421875 0.1494140625 3.208740234375 0.1790771484375 Q 3.182373046875 0.208740234375 3.182373046875 0.258544921875 Q 3.182373046875 0.284912109375 3.1864013671875 0.30615234375 Q 3.1904296875 0.327392578125 3.1981201171875 0.3453369140625 Q 3.205810546875 0.36328125 3.216796875 0.380126953125 Q 3.227783203125 0.39697265625 3.24169921875 0.415283203125 L 3.462158203125 0.681884765625 Q 3.522216796875 0.76025390625 3.554443359375 0.8323974609375 Q 3.586669921875 0.904541015625 3.586669921875 0.985107421875 Q 3.586669921875 1.0517578125 3.5657958984375 1.105224609375 Q 3.544921875 1.15869140625 3.506103515625 1.196044921875 Q 3.46728515625 1.2333984375 3.412353515625 1.2535400390625 Q 3.357421875 1.273681640625 3.28857421875 1.273681640625 Q 3.20361328125 1.273681640625 3.1475830078125 1.2509765625 Q 3.091552734375 1.228271484375 3.0582275390625 1.19091796875 Q 3.02490234375 1.153564453125 3.0113525390625 1.10595703125 Q 2.997802734375 1.058349609375 2.997802734375 1.008544921875 M 4.023193359375 1.27294921875 Q 3.9931640625 1.27294921875 3.9580078125 1.2681884765625 Q 3.9228515625 1.263427734375 3.888427734375 1.248046875 Q 3.85400390625 1.232666015625 3.8221435546875 1.2044677734375 Q 3.790283203125 1.17626953125 3.7657470703125 1.130126953125 Q 3.7412109375 1.083984375 3.7265625 1.0162353515625 Q 3.7119140625 0.948486328125 3.7119140625 0.854736328125 L 3.7119140625 0.41162109375 Q 3.7119140625 0.317138671875 3.7269287109375 0.2501220703125 Q 3.741943359375 0.18310546875 3.766845703125 0.1373291015625 Q 3.791748046875 0.091552734375 3.8236083984375 0.064453125 Q 3.85546875 0.037353515625 3.8902587890625 0.0230712890625 Q 3.925048828125 0.0087890625 3.95947265625 0.00439453125 Q 3.993896484375 0 4.023193359375 0 Q 4.051025390625 0 4.0850830078125 0.0040283203125 Q 4.119140625 0.008056640625 4.1531982421875 0.0216064453125 Q 4.187255859375 0.03515625 4.219482421875 0.0618896484375 Q 4.251708984375 0.088623046875 4.276611328125 0.1343994140625 Q 4.301513671875 0.18017578125 4.3165283203125 0.2479248046875 Q 4.33154296875 0.315673828125 4.33154296875 0.41162109375 L 4.33154296875 0.854736328125 Q 4.33154296875 0.94775390625 4.316162109375 1.0147705078125 Q 4.30078125 1.081787109375 4.27587890625 1.1282958984375 Q 4.2509765625 1.1748046875 4.2183837890625 1.2030029296875 Q 4.185791015625 1.231201171875 4.1517333984375 1.2469482421875 Q 4.11767578125 1.2626953125 4.083984375 1.267822265625 Q 4.05029296875 1.27294921875 4.023193359375 1.27294921875 M 4.023193359375 1.130126953125 Q 4.051025390625 1.130126953125 4.0718994140625 1.12060546875 Q 4.0927734375 1.111083984375 4.1063232421875 1.087646484375 Q 4.119873046875 1.064208984375 4.1268310546875 1.0257568359375 Q 4.1337890625 0.9873046875 4.1337890625 0.9287109375 L 4.1337890625 0.359619140625 Q 4.1337890625 0.299560546875 4.1268310546875 0.25927734375 Q 4.119873046875 0.218994140625 4.1063232421875 0.1944580078125 Q 4.0927734375 0.169921875 4.0718994140625 0.15966796875 Q 4.051025390625 0.1494140625 4.023193359375 0.1494140625 Q 3.99462890625 0.1494140625 3.973388671875 0.15966796875 Q 3.9521484375 0.169921875 3.938232421875 0.1944580078125 Q 3.92431640625 0.218994140625 3.9173583984375 0.25927734375 Q 3.910400390625 0.299560546875 3.910400390625 0.359619140625 L 3.910400390625 0.9287109375 Q 3.910400390625 0.9873046875 3.9173583984375 1.0257568359375 Q 3.92431640625 1.064208984375 3.938232421875 1.087646484375 Q 3.9521484375 1.111083984375 3.973388671875 1.12060546875 Q 3.99462890625 1.130126953125 4.023193359375 1.130126953125 M 4.780517578125 1.27294921875 Q 4.751220703125 1.27294921875 4.7171630859375 1.2681884765625 Q 4.68310546875 1.263427734375 4.6490478515625 1.248046875 Q 4.614990234375 1.232666015625 4.5838623046875 1.2044677734375 Q 4.552734375 1.17626953125 4.5289306640625 1.130126953125 Q 4.505126953125 1.083984375 4.4908447265625 1.0162353515625 Q 4.4765625 0.948486328125 4.4765625 0.854736328125 L 4.4765625 0.41162109375 Q 4.4765625 0.317138671875 4.4912109375 0.2501220703125 Q 4.505859375 0.18310546875 4.530029296875 0.1373291015625 Q 4.55419921875 0.091552734375 4.585693359375 0.064453125 Q 4.6171875 0.037353515625 4.65087890625 0.0230712890625 Q 4.6845703125 0.0087890625 4.7178955078125 0.00439453125 Q 4.751220703125 0 4.77978515625 0 Q 4.8544921875 0 4.9046630859375 0.0208740234375 Q 4.954833984375 0.041748046875 4.9852294921875 0.0780029296875 Q 5.015625 0.1142578125 5.0284423828125 0.16259765625 Q 5.041259765625 0.2109375 5.041259765625 0.26513671875 Q 5.041259765625 0.305419921875 5.0372314453125 0.3394775390625 Q 5.033203125 0.37353515625 5.025146484375 0.41455078125 L 4.871337890625 0.41455078125 L 4.871337890625 0.350830078125 Q 4.871337890625 0.24755859375 4.8486328125 0.1962890625 Q 4.825927734375 0.14501953125 4.781982421875 0.14501953125 Q 4.755615234375 0.14501953125 4.73583984375 0.1552734375 Q 4.716064453125 0.16552734375 4.702880859375 0.1900634765625 Q 4.689697265625 0.214599609375 4.6827392578125 0.2548828125 Q 4.67578125 0.295166015625 4.67578125 0.355224609375 L 4.67578125 0.926513671875 Q 4.67578125 0.985107421875 4.6812744140625 1.02392578125 Q 4.686767578125 1.062744140625 4.69921875 1.086181640625 Q 4.711669921875 1.109619140625 4.7318115234375 1.1195068359375 Q 4.751953125 1.12939453125 4.780517578125 1.12939453125 Q 4.798828125 1.12939453125 4.815673828125 1.1209716796875 Q 4.83251953125 1.112548828125 4.8453369140625 1.0946044921875 Q 4.858154296875 1.07666015625 4.8658447265625 1.0491943359375 Q 4.87353515625 1.021728515625 4.87353515625 0.984375 L 4.87353515625 0.862060546875 L 5.047119140625 0.862060546875 L 5.047119140625 0.977783203125 Q 5.047119140625 1.128662109375 4.978271484375 1.200439453125 Q 4.909423828125 1.272216796875 4.780517578125 1.27294921875 M 5.196533203125 0.010986328125 L 5.38623046875 0.010986328125 L 5.38623046875 1.261962890625 L 5.196533203125 1.261962890625 L 5.196533203125 0.010986328125 M 5.73779296875 0.010986328125 L 5.9560546875 0.010986328125 L 6.1875 1.261962890625 L 5.99560546875 1.261962890625 L 5.961181640625 1.037841796875 L 5.732666015625 1.037841796875 L 5.69970703125 1.261962890625 L 5.507080078125 1.261962890625 L 5.73779296875 0.010986328125 M 5.939208984375 0.89501953125 L 5.851318359375 0.271728515625 L 5.84326171875 0.271728515625 L 5.754638671875 0.89501953125 L 5.939208984375 0.89501953125 M 6.308349609375 0.010986328125 L 6.498046875 0.010986328125 L 6.498046875 1.112548828125 L 6.756591796875 1.112548828125 L 6.756591796875 1.261962890625 L 6.308349609375 1.261962890625 L 6.308349609375 0.010986328125 M 7.784912109375 1.387939453125 L 7.784912109375 1.50732421875 L 6.76611328125 1.50732421875 L 6.76611328125 1.387939453125 L 7.784912109375 1.387939453125 M 7.88818359375 0.010986328125 L 8.1357421875 0.010986328125 L 8.255859375 0.4951171875 Q 8.27490234375 0.57568359375 8.285888671875 0.6485595703125 Q 8.296875 0.721435546875 8.30712890625 0.785888671875 L 8.31298828125 0.785888671875 Q 8.3232421875 0.721435546875 8.334228515625 0.6485595703125 Q 8.34521484375 0.57568359375 8.3642578125 0.4951171875 L 8.488037109375 0.010986328125 L 8.73046875 0.010986328125 L 8.73046875 1.261962890625 L 8.55322265625 1.261962890625 L 8.55322265625 0.84814453125 Q 8.55322265625 0.7529296875 8.5550537109375 0.6650390625 Q 8.556884765625 0.5771484375 8.559814453125 0.5035400390625 Q 8.562744140625 0.429931640625 8.56640625 0.37353515625 Q 8.570068359375 0.317138671875 8.572998046875 0.2841796875 L 8.55908203125 0.2841796875 L 8.3701171875 1.100830078125 L 8.25 1.100830078125 L 8.0595703125 0.2841796875 L 8.045654296875 0.2841796875 Q 8.048583984375 0.317138671875 8.05224609375 0.37353515625 Q 8.055908203125 0.429931640625 8.058837890625 0.5035400390625 Q 8.061767578125 0.5771484375 8.0635986328125 0.6650390625 Q 8.0654296875 0.7529296875 8.0654296875 0.84814453125 L 8.0654296875 1.261962890625 L 7.88818359375 1.261962890625 L 7.88818359375 0.010986328125 M 8.9443359375 0.010986328125 L 9.407958984375 0.010986328125 L 9.407958984375 0.160400390625 L 9.134033203125 0.160400390625 L 9.134033203125 0.53466796875 L 9.345703125 0.53466796875 L 9.345703125 0.68408203125 L 9.134033203125 0.68408203125 L 9.134033203125 1.112548828125 L 9.415283203125 1.112548828125 L 9.415283203125 1.261962890625 L 8.9443359375 1.261962890625 L 8.9443359375 0.010986328125 M 9.55224609375 0.010986328125 L 9.749267578125 0.010986328125 Q 9.7939453125 0.010986328125 9.8419189453125 0.0135498046875 Q 9.889892578125 0.01611328125 9.9356689453125 0.029296875 Q 9.9814453125 0.04248046875 10.0220947265625 0.0699462890625 Q 10.062744140625 0.097412109375 10.093505859375 0.1468505859375 Q 10.124267578125 0.1962890625 10.1422119140625 0.2713623046875 Q 10.16015625 0.346435546875 10.16015625 0.454833984375 L 10.16015625 0.818115234375 Q 10.16015625 0.926513671875 10.1422119140625 1.001953125 Q 10.124267578125 1.077392578125 10.093505859375 1.12646484375 Q 10.062744140625 1.175537109375 10.0220947265625 1.2030029296875 Q 9.9814453125 1.23046875 9.9356689453125 1.24365234375 Q 9.889892578125 1.2568359375 9.8419189453125 1.2593994140625 Q 9.7939453125 1.261962890625 9.749267578125 1.261962890625 L 9.55224609375 1.261962890625 L 9.55224609375 0.010986328125 M 9.790283203125 1.12939453125 Q 9.841552734375 1.12939453125 9.8748779296875 1.1162109375 Q 9.908203125 1.10302734375 9.9276123046875 1.0697021484375 Q 9.947021484375 1.036376953125 9.954345703125 0.9788818359375 Q 9.961669921875 0.92138671875 9.961669921875 0.83349609375 L 9.961669921875 0.4453125 Q 9.961669921875 0.357421875 9.954345703125 0.2999267578125 Q 9.947021484375 0.242431640625 9.9276123046875 0.2091064453125 Q 9.908203125 0.17578125 9.8748779296875 0.16259765625 Q 9.841552734375 0.1494140625 9.790283203125 0.1494140625 L 9.741943359375 0.1494140625 L 9.741943359375 1.12939453125 L 9.790283203125 1.12939453125 M 10.329345703125 0.010986328125 L 10.51904296875 0.010986328125 L 10.51904296875 1.261962890625 L 10.329345703125 1.261962890625 L 10.329345703125 0.010986328125 M 10.87060546875 0.010986328125 L 11.0888671875 0.010986328125 L 11.3203125 1.261962890625 L 11.12841796875 1.261962890625 L 11.093994140625 1.037841796875 L 10.865478515625 1.037841796875 L 10.83251953125 1.261962890625 L 10.639892578125 1.261962890625 L 10.87060546875 0.010986328125 M 11.072021484375 0.89501953125 L 10.984130859375 0.271728515625 L 10.97607421875 0.271728515625 L 10.887451171875 0.89501953125 L 11.072021484375 0.89501953125" fill="#ffffff" fill-rule="nonzero"></path></g><g></g></g><defs><clipPath id="SvgjsClipPath13208"><path d=" M 11.734228515625 -0.6925764004373811 h 2.6471156914997622 v 2.6471156914997622 h -2.6471156914997622 Z"></path></clipPath><clipPath id="a266570a9-4867-4f5f-890a-17ed9965991f246d560b-56ee-49ec-a767-629bfea73824"><path d=" M 11.734228515625 1.9545444566802115 L 14.381339311203838 1.9545444566802115 L 14.381339311203838 -0.6925663388986273 L 11.734228515625 -0.6925663388986273 Z"></path></clipPath></defs></svg>