<svg xmlns="http://www.w3.org/2000/svg" version="1.1" xmlns:xlink="http://www.w3.org/1999/xlink" xmlns:svgjs="http://svgjs.dev/svgjs" viewBox="0 0 8.162925205380521 7.16459861803109"><g transform="matrix(0.8486958123722086,0,0,0.8486958123722086,2.678161824954522,2.6037278090768172)"><rect width="9.44021885733149" height="9.44021885733149" x="-3.0666303407775386" y="-3.567079702734258" fill="#51a8db"></rect><g><path d=" M -1.6613370964888214 2.5125375189596797 L -1.514110004227503 2.460960554098637 L -1.4519531491385542 2.6383880755417644 L -0.9338270359881452 2.4568768338192486 L -0.8690252083422196 2.641854462557828 L -1.3871513214926288 2.8233657042803437 L -1.3256557095429238 2.998905698899608 L -1.4728828018042424 3.0504826637606506 L -1.6613370964888214 2.5125375189596797 M -1.579003918695049 2.040265529397303 L -1.4647294733709262 2.0273678107670916 L -1.4899641402561228 1.8037873742633734 L -1.3419042067492162 1.787076417081621 L -1.3166695398640196 2.0106568535853393 L -1.190470804593032 1.9964132860545836 L -1.2190700937295882 1.7430221246837032 L -1.063060633591438 1.7254139349015882 L -1.0124791457459996 2.17356849873793 L -1.7130311801243165 2.252637121644879 L -1.763612667969755 1.8044825578085375 L -1.607603207831605 1.7868743680264225 L -1.579003918695049 2.040265529397303 M -1.603996972658237 1.4987528909174523 Q -1.6785956340761385 1.4442594076863604 -1.7124338839977096 1.3586718919948455 Q -1.7462721339192808 1.2730843763033306 -1.7316957182403132 1.1701109423217744 Q -1.7131948829554693 1.0394138914990299 -1.6307765703900192 0.9601833938742907 Q -1.548358257824569 0.880952896249552 -1.4249085239839778 0.8721686367652696 L -1.4544818288711143 1.081085892247081 Q -1.4967499948053704 1.0942920328094932 -1.5222379951790062 1.124518045397222 Q -1.5477259955526417 1.154744057984951 -1.5538929406475894 1.1983097415925326 Q -1.5634236739761453 1.2656385253497042 -1.5210788017347292 1.3125364122408865 Q -1.478733929493313 1.359434299132069 -1.398533466488447 1.3707870844204957 Q -1.3173428743106814 1.3822800275519895 -1.2636452167808383 1.348977451438306 Q -1.2099475592509954 1.3156748753246221 -1.2004168259224395 1.2483460915674507 Q -1.1942498808274915 1.2047804079598692 -1.2103473057156382 1.1686677659633262 Q -1.2264447306037851 1.1325551239667835 -1.2633868985014953 1.1081363559590116 L -1.2338135936143588 0.8992191004772001 Q -1.1176520676132515 0.9419215579836959 -1.060462166799861 1.0409143114808814 Q -1.0032722659864703 1.139907064978067 -1.021773101271314 1.2706041158008117 Q -1.0363495169502817 1.373577549782368 -1.0926130217625725 1.446410701754786 Q -1.1488765265748633 1.519243853727204 -1.2356689203395934 1.5508916085383755 Q -1.3224613141043235 1.5825393633495468 -1.4264248772587793 1.567822789827512 Q -1.5293983112403358 1.5532463741485443 -1.603996972658237 1.4987528909174523 M -0.6251348864725528 0.23174704625881204 L -0.45282967676072583 0.3118152341124367 L -0.7259043384930877 0.8994666861822466 L -0.8982095482049146 0.819398498328622 L -0.6251348864725528 0.23174704625881204 M -0.5727745358804204 0.012668520796974447 Q -0.6684988346840928 0.03503162922458895 -0.7554756369573087 -0.030938332624163872 L -0.6202125161276493 -0.1902646899647526 Q -0.5900648386918083 -0.16860556843998886 -0.564808631177198 -0.17208751932691213 Q -0.5395524236625878 -0.1755694702138355 -0.5201366646918233 -0.19843928227229318 Q -0.5026624816181353 -0.2190221131249051 -0.5016280376448287 -0.24109992836251615 Q -0.500593593671522 -0.2631777436001272 -0.5188894433182881 -0.2787103507767388 Q -0.5425215824453611 -0.29877330171319544 -0.5742497096168928 -0.2876680801401196 Q -0.6059778367884245 -0.27656285856704366 -0.6640541829993347 -0.24060263038658708 Q -0.726243951210244 -0.20288747786305383 -0.7701396417273885 -0.18440320470928662 Q -0.8140353322445328 -0.1659189315555194 -0.8660584525113687 -0.16876409547036303 Q -0.9180815727782046 -0.1716092593852067 -0.9691574863754269 -0.21497112108658079 Q -1.0209957270412644 -0.258980174753647 -1.0359640630355713 -0.31628810542263497 Q -1.050932399029878 -0.37359603609162306 -1.0311590578037304 -0.43551545935084224 Q -1.0113857165775828 -0.4974348826100614 -0.9621991271849795 -0.5553717398248209 Q -0.882594515404845 -0.6491379692644976 -0.7911920994810946 -0.6679554707804203 Q -0.6997896835573443 -0.686772972296343 -0.6172717085928968 -0.6232766432074357 L -0.7551235972853249 -0.460900977592386 Q -0.7801652554467052 -0.4808487934259196 -0.8043355399098541 -0.4771008141076116 Q -0.828505824373003 -0.4733528347893038 -0.8472743913780754 -0.4512453497994614 Q -0.8615126146233026 -0.43447415428992575 -0.8606630502509944 -0.4153880797753142 Q -0.8598134858786862 -0.3963020052607026 -0.8415176362319201 -0.38076939808409105 Q -0.8262710948596148 -0.36782555877024803 -0.8051858768964654 -0.3702573448312483 Q -0.7841006589333157 -0.37268913089224864 -0.7612108095019361 -0.383427137830632 Q -0.7383209600705565 -0.3941651447690153 -0.6970000885165656 -0.41811479140562735 Q -0.6361047042370407 -0.4543052897919302 -0.5907994946855888 -0.47290469804862056 Q -0.5454942851341369 -0.49150410630531083 -0.49423349193591626 -0.48930613435615933 Q -0.4429726987376957 -0.4871081624070078 -0.39570842048354976 -0.4469822605340945 Q -0.34768181516078855 -0.406209166695489 -0.3299520086493284 -0.34983626574950094 Q -0.3122222021378683 -0.29346336480351287 -0.3286226391067088 -0.2293363372158327 Q -0.3450230760755493 -0.1652093096281525 -0.3974456252966134 -0.10346081707031671 Q -0.47705023707674793 -0.0096945876306401 -0.5727745358804204 0.012668520796974447 M -0.03711441889853831 -0.5193370468854782 Q -0.1319125213034783 -0.5113015145183907 -0.21832933169925733 -0.5524188451834517 Q -0.30474614209503637 -0.5935361758485129 -0.36305923019038117 -0.6796499596277927 Q -0.42137231828572597 -0.7657637434070725 -0.4274714649642921 -0.8612692427764458 Q -0.4335706116428582 -0.956774742145819 -0.39063751547656633 -1.041401861047362 Q -0.3477044193102743 -1.1260289799489054 -0.2657307212896137 -1.1815385541935126 Q -0.1829290061172293 -1.2376088312082671 -0.08882526367322502 -1.2457780207661426 Q 0.00527847877077936 -1.2539472103240186 0.09128128059069646 -1.2125495282738836 Q 0.17728408241061355 -1.1711518462237487 0.2355971705059584 -1.0850380624444689 Q 0.2939102586013032 -0.9989242786651891 0.30042341385573124 -0.9036991306808896 Q 0.30693656911015926 -0.8084739826965902 0.2642838243289411 -0.7234328552191851 Q 0.22163107954772293 -0.63839172774178 0.1396573815270623 -0.5828821534971729 Q 0.057683683506401684 -0.5273725792525659 -0.03711441889853831 -0.5193370468854782 M 0.10825507410225466 -0.8405973938078652 Q 0.11679938446501215 -0.9055608047437519 0.07082175731291329 -0.9734582111851071 Q 0.023722724620519414 -1.04301165192991 -0.03949010583162382 -1.0587799132870983 Q -0.10270293628376703 -1.0745481746442864 -0.1648042226630554 -1.0324954668832205 Q -0.22773352619406756 -0.9898820563520069 -0.23614417936603688 -0.9256130053770559 Q -0.2445548325380062 -0.8613439544021051 -0.1974557998456123 -0.791790513657302 Q -0.15091746992336594 -0.723065090064223 -0.08811864804708461 -0.707016477321961 Q -0.025319826170803306 -0.690967864579699 0.037609477360208865 -0.7335812751109125 Q 0.09971076373949722 -0.7756339828719786 0.10825507410225466 -0.8405973938078652 M 0.409656319270677 -1.361196025160933 Q 0.4273026158228461 -1.451877380565409 0.4904120370829088 -1.5188658194800453 Q 0.5535214583429714 -1.5858542583946815 0.6529352510678355 -1.6163976343714423 Q 0.779114295680163 -1.6551642269573308 0.8858503471378495 -1.6142049139843073 Q 0.9925863985955359 -1.5732456010112836 1.052975889980483 -1.465217320777507 L 0.851280598971384 -1.403249509901579 Q 0.8213710114632796 -1.4359055441846187 0.78318088692679 -1.4461409918000094 Q 0.7449907623903004 -1.4563764394154006 0.7029310808528579 -1.443454241886771 Q 0.6379297548404468 -1.423483572978889 0.6134595157011766 -1.3652280376499013 Q 0.5889892765619064 -1.3069725023209138 0.6127778674668835 -1.2295444522178944 Q 0.6368601446793294 -1.1511605002617518 0.6898179556430784 -1.116693555837741 Q 0.7427757666068273 -1.0822266114137307 0.8077770926192384 -1.1021972803216125 Q 0.8498367741566808 -1.115119477850242 0.8756920737794787 -1.1450319080660463 Q 0.9015473734022765 -1.1749443382818503 0.9079620563128725 -1.218760452248706 L 1.1096573473219717 -1.2807282631246342 Q 1.1203399423444869 -1.1574282949024772 1.0550136602399087 -1.06360544658506 Q 0.9896873781353305 -0.9697825982676429 0.8635083335230029 -0.9310160056817544 Q 0.7640945407981389 -0.9004726297049936 0.6742596655584107 -0.9204712594246135 Q 0.5844247903186824 -0.9404698891442334 0.5189076256490902 -1.0056005357989193 Q 0.4533904609794981 -1.070731182453605 0.42255339869526853 -1.1711008770315927 Q 0.3920100227185079 -1.2705146697564569 0.409656319270677 -1.361196025160933 M 1.446307771983817 -1.7541330018093277 L 1.5092451723869031 -1.0519479239057157 L 1.314027760657672 -1.0344504338645741 L 1.251090360254586 -1.7366355117681862 L 1.446307771983817 -1.7541330018093277 M 2.1112896263765624 -1.1343850428122033 L 1.8630500961795202 -1.1640015187597543 L 1.8116941086536964 -1.0543130392131426 L 1.6071447357713338 -1.0787170153939247 L 1.9458534349859866 -1.7483067532755006 L 2.1702619702841126 -1.7215334590189146 L 2.34094078703379 -0.991170712492964 L 2.1353984560306394 -1.0156931545775363 L 2.1112896263765624 -1.1343850428122033 M 2.0804045640264723 -1.2891335902161485 L 2.031949972910738 -1.5245314504439063 L 1.9304678877874593 -1.3070219416884692 L 2.0804045640264723 -1.2891335902161485 M 2.6677871823709016 -1.0178634797941737 L 2.8726955519019928 -0.9405746701506695 L 2.819758011050278 -0.800226471841703 L 2.431461329062137 -0.9466870015314482 L 2.680267771065198 -1.6063235335835908 L 2.8636560835222475 -1.5371518135373496 L 2.6677871823709016 -1.0178634797941737 M 3.4413992610279798 -0.35042481115666413 L 3.3332153310730908 -0.19423186221364808 L 2.800515168362173 -0.563196002270323 L 2.908699098317062 -0.719388951213339 L 3.4413992610279798 -0.35042481115666413 M 4.639550101429443 -0.04836725932436997 L 4.073216545323752 0.3715033198172054 L 3.9564865687113424 0.21405455811973662 L 4.268974162080299 -0.017618711789586516 L 3.8772769417243502 0.10721432696788286 L 3.7796049204772317 -0.024528514452448136 L 4.014697255780012 -0.3656320088377817 L 3.6997997323850744 -0.1321720556129625 L 3.583069755772665 -0.28962081731043127 L 4.1494033118783555 -0.7094913964520067 L 4.290551293802546 -0.5191069243994552 L 4.0280496254502784 -0.10415406670080427 L 4.49899768061042 -0.23794842136826094 L 4.639550101429443 -0.04836725932436997 M 4.701164931070833 0.5095200292662366 L 4.593226589691366 0.5491976610031435 L 4.670856738741836 0.7603813723977533 L 4.531006192084961 0.8117897822133977 L 4.453376043034491 0.6006060708187879 L 4.334174570380645 0.6444239771717197 L 4.422155405971178 0.8837655167522774 L 4.274796105131383 0.9379341096452719 L 4.119190784145775 0.5146280925831873 L 4.780899746515552 0.27138695889171544 L 4.936505067501161 0.6946929759538 L 4.789145766661366 0.7488615688467944 L 4.701164931070833 0.5095200292662366 M 5.019861798016366 1.4665066210092645 Q 4.984226886320275 1.5541573658344616 4.90930425853407 1.607181887007309 Q 4.834381630747865 1.6602064081801564 4.731932834475523 1.6708480312870049 Q 4.6304786867106795 1.681386337664661 4.546205894932535 1.6443951689088974 Q 4.461933103154389 1.6074040001531338 4.408049649175618 1.5290517609552803 Q 4.354166195196847 1.4506995217574268 4.3428013549856495 1.3412881859325956 L 4.313975987540885 1.0637812523405243 L 5.015203185327302 0.9909429582596666 L 5.044028552772066 1.268449891851738 Q 5.055496709712457 1.3788558761840675 5.019861798016366 1.4665066210092645 M 4.574022034138436 1.4379163264100159 Q 4.625833033721307 1.4817982170053836 4.7113728053661745 1.472912978294811 Q 4.797907225518541 1.4639244228550454 4.840090509894275 1.4102791013509672 Q 4.882273794270009 1.3566337798468888 4.873388555559437 1.271094008202021 L 4.866363017974333 1.2034579096921254 L 4.5063002582598894 1.2408585656598852 L 4.5133257958449935 1.3084946641697806 Q 4.522211034555566 1.3940344358146484 4.574022034138436 1.4379163264100159 M 5.038402216469287 2.0946774595279636 L 4.336990605062471 2.0236369683719055 L 4.356740869270397 1.8286345912999395 L 5.058152480677213 1.8996750824559978 L 5.038402216469287 2.0946774595279636 M 4.30404259082745 2.630405319154375 L 4.38008690583921 2.3922514567998205 L 4.2820948650379025 2.321071684816518 L 4.344755380607594 2.1248329022363652 L 4.938175716615348 2.5841000410700126 L 4.869431655844716 2.7993911326385295 L 4.119968385432829 2.8288157193564283 L 4.182933078262567 2.631624321326857 L 4.30404259082745 2.630405319154375 M 4.4618395939824875 2.6293537511399387 L 4.702153388213416 2.62630739227488 L 4.507770360249591 2.4855088182777876 L 4.4618395939824875 2.6293537511399387" fill="#000000" fill-rule="nonzero"></path></g><g transform="matrix(1,0,0,1,0,0)" clip-path="url(#SvgjsClipPath13579)"><path d=" M 0 0.3286475957734786 L 3.3066383869233418 0.3286475957734786 L 3.3066383869233418 2.977990791149863 L 0 2.977990791149863 Z" fill="#000000" transform="matrix(1,0,0,1,0,0)" fill-rule="nonzero" mask="url(#maskedMgText-05ee2ff6-0128-4c3d-bf14-43669b35284a)"></path></g><g><path d=" M -0.8150438220482068 1.6533191934616707 A 2.4683630155098775 2.4683630155098775 0 0 1 4.121682208971548 1.6533191934616707 A 2.4683630155098775 2.4683630155098775 0 0 1 -0.8150438220482066 1.6533191934616707 Z M -0.7650438220482068 1.6533191934616709 A 2.4183630155098776 2.4183630155098776 0 0 0 4.0716822089715485 1.6533191934616709 A 2.4183630155098776 2.4183630155098776 0 0 0 -0.7650438220482068 1.6533191934616709 Z" fill="#000000" fill-rule="nonzero"></path></g><g transform="matrix(-0.7347785894984993,-0.6783070281329804,0.6783070281329804,-0.7347785894984993,-3.7793048172463877,5.426334928643817)"><g clip-path="url(#SvgjsClipPath13580)"><path d=" M -0.8310056053679511 3.5638803520440914 L -0.8265868625108083 3.5638803520440914 L -0.8127782910822369 3.483238294901234 L -0.7360026339393797 3.5119601234726625 L -0.7337932625108083 3.508093723472663 L -0.796760348225094 3.4556211520440914 L -0.7337932625108083 3.4037009234726625 L -0.7360026339393797 3.399834523472663 L -0.8127782910822369 3.4280040091869486 L -0.8265868625108083 3.3473619520440914 L -0.8310056053679511 3.3473619520440914 L -0.8448141767965226 3.4280040091869486 L -0.9215894887250939 3.399834523472663 L -0.9237988601536654 3.4037009234726625 L -0.8608321196536655 3.4556211520440914 L -0.9237988601536654 3.508093723472663 L -0.9215894887250939 3.5119601234726625 L -0.8448141767965226 3.483238294901234 L -0.8310056053679511 3.5638803520440914 Z" fill="#000000" transform="matrix(1,0,0,1,0,0)" fill-rule="nonzero"></path></g></g><g transform="matrix(0.7347785894984993,-0.6783070281329804,-0.6783070281329804,-0.7347785894984993,3.4383411139355102,8.793599801354802)"><g clip-path="url(#SvgjsClipPath13581)"><path d=" M 4.133213742291293 3.5638803520440914 L 4.137632485148436 3.5638803520440914 L 4.151441056577007 3.483238294901234 L 4.228216713719865 3.5119601234726625 L 4.230426085148436 3.508093723472663 L 4.16745899943415 3.4556211520440914 L 4.230426085148436 3.4037009234726625 L 4.228216713719865 3.399834523472663 L 4.151441056577007 3.4280040091869486 L 4.137632485148436 3.3473619520440914 L 4.133213742291293 3.3473619520440914 L 4.119405170862722 3.4280040091869486 L 4.04262985893415 3.399834523472663 L 4.040420487505579 3.4037009234726625 L 4.103387228005579 3.4556211520440914 L 4.040420487505579 3.508093723472663 L 4.04262985893415 3.5119601234726625 L 4.119405170862722 3.483238294901234 L 4.133213742291293 3.5638803520440914 Z" fill="#000000" transform="matrix(1,0,0,1,0,0)" fill-rule="nonzero"></path></g></g></g><defs><clipPath id="SvgjsClipPath13579"><path d=" M 0 0 h 3.3066383869233418 v 3.3066383869233418 h -3.3066383869233418 Z"></path></clipPath><mask id="maskedMgText-05ee2ff6-0128-4c3d-bf14-43669b35284a"><path d=" M 1.6533191934616709 2.925568475259615 C 2.5664191566096877 2.925568475259615 3.3066383869233418 2.34422918695179 3.3066383869233418 1.6271080355165468 C 3.3066383869233418 0.9099868840813036 2.5664191566096877 0.3286475957734786 1.6533191934616709 0.3286475957734786 C 0.7402192303136539 0.3286475957734786 0 0.9099868840813036 0 1.6271080355165468 C 0 1.9182857728860108 0.12203915139249755 2.1870751488845013 0.3281475675296023 2.4036680281996556 L 0.07981095969998397 2.977990791149863 L 0.8516610089246461 2.7630109061697934 C 1.104899066508605 2.8716182438089843 1.377777627751856 2.9269516470325154 1.6533191934616704 2.925568475259615 Z" fill="#ffffff" transform="matrix(1,0,0,1,0,0)" fill-rule="nonzero"></path><path d=" M 1.9751464931444196 2.479978790192506 L 1.3314542204900088 2.479978790192506 L 1.3314542204900088 2.303624742889928 L 1.5518967796182317 2.303624742889928 L 1.5518967796182317 1.0030136440334134 L 1.225641792108462 1.0030136440334134 L 1.225641792108462 1.258727012622152 L 1.0581054471710127 1.258727012622152 L 1.0581054471710127 0.8266595967308352 L 2.248495266463416 0.8266595967308352 L 2.248495266463416 1.258727012622152 L 2.0809589215259665 1.258727012622152 L 2.0809589215259665 1.0030136440334134 L 1.7547039340161965 1.0030136440334134 L 1.7547039340161965 2.303624742889928 L 1.9751464931444196 2.303624742889928 L 1.9751464931444196 2.479978790192506" fill="NA" transform="matrix(1,0,0,1,0,0)" fill-rule="nonzero"></path></mask><clipPath id="SvgjsClipPath13580"><path d=" M -0.9898904803679511 3.2909309234726627 h 0.3222 v 0.3222 h -0.3222 Z"></path></clipPath><clipPath id="SvgjsClipPath13581"><path d=" M 3.9743288672912933 3.2909309234726627 h 0.3222 v 0.3222 h -0.3222 Z"></path></clipPath></defs></svg>